<svg width="250" height="130" viewBox="0 0 250 130" fill="none" xmlns="http://www.w3.org/2000/svg">
<path d="M120.5 93.002C139.002 93.002 154 78.0035 154 59.502C154 41.0004 139.002 26.002 120.5 26.002C101.998 26.002 87 41.0004 87 59.502C87 78.0035 101.998 93.002 120.5 93.002Z" fill="#F3F7FF" stroke="#1F64E7" stroke-width="2.5"/>
<path d="M115.132 85.4958C116.891 85.8205 118.68 85.9892 120.5 86.002C135.136 86.002 147 74.1375 147 59.502C147 44.8664 135.136 33.002 120.5 33.002C116.74 33.002 113.164 33.7849 109.924 35.1966C104.294 37.6498 99.6816 42.0019 96.896 47.4438C95.0445 51.0609 94 55.1594 94 59.502C94 63.442 94.8599 67.1811 96.4021 70.5421C97.5032 72.9415 98.9521 75.1482 100.684 77.0975" stroke="#1F64E7" stroke-width="2.5" stroke-linecap="round"/>
<path d="M103.797 80.0781C105.945 81.8241 108.372 83.2404 111 84.25" stroke="#1F64E7" stroke-width="2.5" stroke-linecap="round"/>
<path d="M148 86.002L154 92.002" stroke="#1F64E7" stroke-width="2.5"/>
<path fill-rule="evenodd" clip-rule="evenodd" d="M153.029 91.0328C151.136 92.9255 151.136 95.9942 153.029 97.8869L164.114 108.972C166.007 110.865 169.076 110.865 170.968 108.972C172.861 107.08 172.861 104.011 170.968 102.118L159.883 91.0328C157.99 89.1401 154.922 89.1401 153.029 91.0328Z" fill="#E8F0FE" stroke="#1F64E7" stroke-width="2.5"/>
<path fill-rule="evenodd" clip-rule="evenodd" d="M114.001 48.0005C114.001 59.5985 123.403 69.0005 135.001 69.0005C137.279 69.0005 139.472 68.6377 141.527 67.9667C138.174 76.2876 130.023 82.1612 120.501 82.1612C107.985 82.1612 97.8398 72.0157 97.8398 59.5005C97.8398 48.1601 106.17 38.7653 117.046 37.1016C115.113 40.2798 114.001 44.0102 114.001 48.0005Z" fill="#E8F0FE"/>
<path d="M121 41.002C119.727 41.002 118.482 41.1272 117.279 41.3661M113.645 42.478C106.804 45.3528 102 52.1164 102 60.002" stroke="#75A4FE" stroke-width="2.5" stroke-linecap="round"/>
<path d="M174.176 59.7793H166M180.5 52.002H163.324H180.5ZM187.5 52.002H185.279H187.5Z" stroke="#75A4FE" stroke-width="2.5" stroke-linecap="round" stroke-linejoin="round"/>
<path d="M84.1743 81.7793H75.9985M79.4985 73.002H62.3228H79.4985ZM56.4985 73.002H52.2773H56.4985Z" stroke="#75A4FE" stroke-width="2.5" stroke-linecap="round" stroke-linejoin="round"/>
</svg>
