<svg width="20" height="20" viewBox="0 0 20 20" fill="none" xmlns="http://www.w3.org/2000/svg">
<circle cx="10" cy="10" r="10" fill="#FEA832"/>
<path d="M11.3346 0H8.66797V1.4H11.3346V0Z" fill="#FEA832"/>
<path d="M11.3346 18.666H8.66797V19.9993H11.3346V18.666Z" fill="#FEA832"/>
<circle cx="10" cy="10" r="10" fill="#FEDB41"/>
<circle cx="10" cy="10" r="8" fill="#FEA832"/>
<path d="M9.77916 4.5326C9.86114 4.33549 10.1404 4.33549 10.2223 4.5326L11.5315 7.68012C11.566 7.76321 11.6442 7.81999 11.7339 7.82718L15.1319 8.0996C15.3447 8.11666 15.431 8.38222 15.2689 8.5211L12.6799 10.7388C12.6116 10.7973 12.5818 10.8892 12.6027 10.9767L13.3936 14.2926C13.4431 14.5003 13.2172 14.6644 13.0351 14.5532L10.1259 12.7762C10.0491 12.7293 9.95245 12.7293 9.87565 12.7762L6.96648 14.5532C6.78429 14.6644 6.5584 14.5003 6.60792 14.2926L7.39888 10.9767C7.41977 10.8892 7.38992 10.7973 7.32157 10.7388L4.73264 8.5211C4.57051 8.38222 4.6568 8.11666 4.8696 8.0996L8.26761 7.82718C8.35732 7.81999 8.43547 7.76321 8.47003 7.68012L9.77916 4.5326Z" fill="#FEDB41"/>
</svg>
